<svg width="32" height="32" viewBox="0 0 32 32" fill="none" xmlns="http://www.w3.org/2000/svg">
  <rect x="0.5" y="0.5" width="31" height="31" rx="6.5" stroke="#222222" stroke-width="1.5" fill="none"/>
  <path d="M22 9.5C22 8 20 7 18 7H14C12 7 10 8.4 10 10.4C10 12.4 12 13.4 14 13.4H18C20 13.4 22 14.4 22 16.4M10 22.5C10 24 12 25 14 25H18C20 25 22 23.6 22 21.6C22 19.6 20 18.6 18 18.6H14C12 18.6 10 17.6 10 15.6" stroke="#222222" stroke-width="2" stroke-linecap="round" stroke-linejoin="round"/>
</svg>
